<?xml version="1.0" encoding="UTF-8" standalone="no"?>
<!DOCTYPE svg PUBLIC "-//W3C//DTD SVG 1.1//EN"
 "http://www.w3.org/Graphics/SVG/1.1/DTD/svg11.dtd">
<!-- Generated by graphviz version 2.28.0 (20140111.2315)
 -->
<!-- Title: %3 Pages: 1 -->
<svg width="796pt" height="183pt"
 viewBox="0.00 0.00 796.00 182.64" xmlns="http://www.w3.org/2000/svg" xmlns:xlink="http://www.w3.org/1999/xlink">
<g id="graph0" class="graph" transform="scale(1 1) rotate(0) translate(4 178.637)">
<title>%3</title>
<polygon fill="white" stroke="none" points="-4,4 -4,-178.637 792,-178.637 792,4 -4,4"/>
<!-- a -->
<g id="node1" class="node"><title>a</title>
<polygon fill="#014386" stroke="#014386" points="219.182,-148.239 142.818,-148.239 142.818,-107.035 219.182,-107.035 219.182,-148.239"/>
<text text-anchor="middle" x="181" y="-131.837" font-family="Helvetica,sans-Serif" font-size="14.00" fill="white">Observed</text>
<text text-anchor="middle" x="181" y="-115.037" font-family="Helvetica,sans-Serif" font-size="14.00" fill="white">data</text>
</g>
<!-- b -->
<g id="node2" class="node"><title>b</title>
<polygon fill="#014386" stroke="#014386" points="373.839,-148.239 278.161,-148.239 278.161,-107.035 373.839,-107.035 373.839,-148.239"/>
<text text-anchor="middle" x="326" y="-131.837" font-family="Helvetica,sans-Serif" font-size="14.00" fill="white">Transformed</text>
<text text-anchor="middle" x="326" y="-115.037" font-family="Helvetica,sans-Serif" font-size="14.00" fill="white">data</text>
</g>
<!-- a&#45;&gt;b -->
<g id="edge1" class="edge"><title>a&#45;&gt;b</title>
<path fill="none" stroke="black" d="M219.198,-127.637C234.138,-127.637 251.696,-127.637 268.169,-127.637"/>
<polygon fill="black" stroke="black" points="268.252,-131.137 278.252,-127.637 268.252,-124.137 268.252,-131.137"/>
</g>
<!-- c -->
<g id="node3" class="node"><title>c</title>
<polygon fill="#014386" stroke="#014386" points="508.17,-142.637 445.83,-142.637 445.83,-106.637 508.17,-106.637 508.17,-142.637"/>
<text text-anchor="middle" x="477" y="-120.437" font-family="Helvetica,sans-Serif" font-size="14.00" fill="white">Results</text>
</g>
<!-- b&#45;&gt;c -->
<g id="edge2" class="edge"><title>b&#45;&gt;c</title>
<path fill="none" stroke="black" d="M373.736,-126.696C393.466,-126.299 416.229,-125.841 435.263,-125.457"/>
<polygon fill="black" stroke="black" points="435.483,-128.954 445.411,-125.253 435.342,-121.955 435.483,-128.954"/>
</g>
<!-- d -->
<g id="node4" class="node"><title>d</title>
<polygon fill="#014386" stroke="#014386" points="667.273,-120.637 580.727,-120.637 580.727,-84.6372 667.273,-84.6372 667.273,-120.637"/>
<text text-anchor="middle" x="624" y="-98.4372" font-family="Helvetica,sans-Serif" font-size="14.00" fill="white">Summaries</text>
</g>
<!-- c&#45;&gt;d -->
<g id="edge3" class="edge"><title>c&#45;&gt;d</title>
<path fill="none" stroke="black" d="M508.397,-120.025C526.381,-117.297 549.655,-113.765 570.526,-110.599"/>
<polygon fill="black" stroke="black" points="571.183,-114.039 580.545,-109.079 570.133,-107.118 571.183,-114.039"/>
</g>
<!-- e -->
<g id="node5" class="node"><title>e</title>
<polygon fill="#014386" stroke="#014386" points="653.007,-66.6372 594.993,-66.6372 594.993,-30.6372 653.007,-30.6372 653.007,-66.6372"/>
<text text-anchor="middle" x="624" y="-44.4372" font-family="Helvetica,sans-Serif" font-size="14.00" fill="white">Tables</text>
</g>
<!-- c&#45;&gt;e -->
<g id="edge4" class="edge"><title>c&#45;&gt;e</title>
<path fill="none" stroke="black" d="M508.373,-113.442C519.739,-108.935 532.641,-103.432 544,-97.6372 546.348,-96.4393 566.88,-83.699 586.422,-71.511"/>
<polygon fill="black" stroke="black" points="588.34,-74.4396 594.97,-66.1757 584.633,-68.5013 588.34,-74.4396"/>
</g>
<!-- f -->
<g id="node6" class="node"><title>f</title>
<polygon fill="#014386" stroke="#014386" points="655.168,-174.637 592.832,-174.637 592.832,-138.637 655.168,-138.637 655.168,-174.637"/>
<text text-anchor="middle" x="624" y="-152.437" font-family="Helvetica,sans-Serif" font-size="14.00" fill="white">Figures</text>
</g>
<!-- c&#45;&gt;f -->
<g id="edge5" class="edge"><title>c&#45;&gt;f</title>
<path fill="none" stroke="black" d="M508.397,-131.345C529.954,-136.103 559.111,-142.538 582.62,-147.726"/>
<polygon fill="black" stroke="black" points="582.124,-151.2 592.643,-149.938 583.633,-144.365 582.124,-151.2"/>
</g>
<!-- g -->
<g id="node7" class="node"><title>g</title>
<polygon fill="#014386" stroke="#014386" points="788.45,-93.6372 703.55,-93.6372 703.55,-57.6372 788.45,-57.6372 788.45,-93.6372"/>
<text text-anchor="middle" x="746" y="-71.4372" font-family="Helvetica,sans-Serif" font-size="14.00" fill="white">Manuscript</text>
</g>
<!-- d&#45;&gt;g -->
<g id="edge12" class="edge"><title>d&#45;&gt;g</title>
<path fill="none" stroke="black" d="M667.308,-93.118C675.838,-91.1986 684.893,-89.1613 693.693,-87.1813"/>
<polygon fill="black" stroke="black" points="694.491,-90.5894 703.478,-84.9796 692.954,-83.7602 694.491,-90.5894"/>
</g>
<!-- e&#45;&gt;g -->
<g id="edge13" class="edge"><title>e&#45;&gt;g</title>
<path fill="none" stroke="black" d="M653.135,-54.9675C665.175,-57.6767 679.628,-60.9285 693.467,-64.0424"/>
<polygon fill="black" stroke="black" points="692.868,-67.495 703.393,-66.2756 694.405,-60.6658 692.868,-67.495"/>
</g>
<!-- f&#45;&gt;g -->
<g id="edge14" class="edge"><title>f&#45;&gt;g</title>
<path fill="none" stroke="black" d="M654.273,-138.536C658.891,-135.6 663.594,-132.563 668,-129.637 682.394,-120.08 698.045,-109.197 711.454,-99.7174"/>
<polygon fill="black" stroke="black" points="713.777,-102.361 719.907,-93.7186 709.726,-96.6521 713.777,-102.361"/>
</g>
<!-- A -->
<g id="node8" class="node"><title>A</title>
<ellipse fill="#df7a1c" stroke="#df7a1c" cx="181" cy="-59.6372" rx="60.0402" ry="29.3315"/>
<text text-anchor="middle" x="181" y="-63.8372" font-family="Helvetica,sans-Serif" font-size="14.00">Processing</text>
<text text-anchor="middle" x="181" y="-47.0372" font-family="Helvetica,sans-Serif" font-size="14.00">scripts</text>
</g>
<!-- A&#45;&gt;b -->
<g id="edge6" class="edge"><title>A&#45;&gt;b</title>
<path fill="none" stroke="black" d="M224.518,-79.8553C239.796,-87.1206 257.2,-95.3966 273.181,-102.996"/>
<polygon fill="black" stroke="black" points="271.865,-106.246 282.399,-107.38 274.871,-99.9242 271.865,-106.246"/>
</g>
<!-- B -->
<g id="node9" class="node"><title>B</title>
<ellipse fill="#df7a1c" stroke="#df7a1c" cx="326" cy="-59.6372" rx="45.9318" ry="29.3315"/>
<text text-anchor="middle" x="326" y="-63.8372" font-family="Helvetica,sans-Serif" font-size="14.00">Analytic</text>
<text text-anchor="middle" x="326" y="-47.0372" font-family="Helvetica,sans-Serif" font-size="14.00">scripts</text>
</g>
<!-- A&#45;&gt;B -->
<g id="edge16" class="edge"><title>A&#45;&gt;B</title>
<path fill="none" stroke="black" d="M241.403,-59.6372C250.769,-59.6372 260.421,-59.6372 269.69,-59.6372"/>
<polygon fill="black" stroke="black" points="269.956,-63.1373 279.956,-59.6372 269.956,-56.1373 269.956,-63.1373"/>
</g>
<!-- B&#45;&gt;c -->
<g id="edge7" class="edge"><title>B&#45;&gt;c</title>
<path fill="none" stroke="black" d="M363.628,-76.7985C378.024,-83.4406 394.731,-91.0219 410,-97.6372 418.419,-101.285 427.494,-105.083 436.141,-108.639"/>
<polygon fill="black" stroke="black" points="435.082,-111.987 445.663,-112.53 437.73,-105.507 435.082,-111.987"/>
</g>
<!-- C -->
<g id="node10" class="node"><title>C</title>
<ellipse fill="#df7a1c" stroke="#df7a1c" cx="477" cy="-59.6372" rx="66.7574" ry="29.3315"/>
<text text-anchor="middle" x="477" y="-63.8372" font-family="Helvetica,sans-Serif" font-size="14.00">Presentation</text>
<text text-anchor="middle" x="477" y="-47.0372" font-family="Helvetica,sans-Serif" font-size="14.00">scripts</text>
</g>
<!-- B&#45;&gt;C -->
<g id="edge17" class="edge"><title>B&#45;&gt;C</title>
<path fill="none" stroke="black" d="M372.109,-59.6372C380.853,-59.6372 390.239,-59.6372 399.665,-59.6372"/>
<polygon fill="black" stroke="black" points="399.88,-63.1373 409.88,-59.6372 399.88,-56.1373 399.88,-63.1373"/>
</g>
<!-- C&#45;&gt;d -->
<g id="edge8" class="edge"><title>C&#45;&gt;d</title>
<path fill="none" stroke="black" d="M532.818,-75.8937C545.221,-79.5718 558.36,-83.4681 570.658,-87.115"/>
<polygon fill="black" stroke="black" points="569.728,-90.4898 580.31,-89.9774 571.718,-83.7787 569.728,-90.4898"/>
</g>
<!-- C&#45;&gt;e -->
<g id="edge9" class="edge"><title>C&#45;&gt;e</title>
<path fill="none" stroke="black" d="M543.289,-54.6843C557.383,-53.615 571.845,-52.518 584.514,-51.5568"/>
<polygon fill="black" stroke="black" points="584.981,-55.0316 594.688,-50.785 584.451,-48.0516 584.981,-55.0316"/>
</g>
<!-- C&#45;&gt;f -->
<g id="edge10" class="edge"><title>C&#45;&gt;f</title>
<path fill="none" stroke="black" d="M520.004,-82.0971C528.155,-86.9322 536.492,-92.2255 544,-97.6372 561.366,-110.154 562.876,-116.79 580,-129.637 581.357,-130.656 582.754,-131.673 584.175,-132.685"/>
<polygon fill="black" stroke="black" points="582.271,-135.623 592.503,-138.372 586.219,-129.842 582.271,-135.623"/>
</g>
<!-- D -->
<g id="node11" class="node"><title>D</title>
<ellipse fill="#df7a1c" stroke="#df7a1c" cx="42" cy="-30.6372" rx="41.6233" ry="29.3315"/>
<text text-anchor="middle" x="42" y="-34.8372" font-family="Helvetica,sans-Serif" font-size="14.00">Master</text>
<text text-anchor="middle" x="42" y="-18.0372" font-family="Helvetica,sans-Serif" font-size="14.00">script</text>
</g>
<!-- D&#45;&gt;g -->
<g id="edge11" class="edge"><title>D&#45;&gt;g</title>
<path fill="none" stroke="black" d="M82.5732,-24.2134C137.019,-15.9469 238.164,-2.63721 325,-2.63721 325,-2.63721 325,-2.63721 478,-2.63721 562.866,-2.63721 588.445,7.91162 668,-21.6372 685.872,-28.2754 703.46,-40.0923 717.305,-50.9826"/>
<polygon fill="black" stroke="black" points="715.448,-53.9843 725.41,-57.5891 719.87,-48.5583 715.448,-53.9843"/>
</g>
<!-- D&#45;&gt;A -->
<g id="edge15" class="edge"><title>D&#45;&gt;A</title>
<path fill="none" stroke="black" d="M81.8922,-38.8699C92.3549,-41.0846 103.959,-43.5409 115.416,-45.9661"/>
<polygon fill="black" stroke="black" points="114.906,-49.4357 125.414,-48.0825 116.356,-42.5874 114.906,-49.4357"/>
</g>
</g>
</svg>
