<?xml version="1.0" encoding="UTF-8" standalone="no"?>
<!-- Generated by graphviz version 2.28.0 (20140111.2315)
 -->

<!-- Title: %3 Pages: 1 -->

<svg
   xmlns:dc="http://purl.org/dc/elements/1.1/"
   xmlns:cc="http://creativecommons.org/ns#"
   xmlns:rdf="http://www.w3.org/1999/02/22-rdf-syntax-ns#"
   xmlns:svg="http://www.w3.org/2000/svg"
   xmlns="http://www.w3.org/2000/svg"
   xmlns:sodipodi="http://sodipodi.sourceforge.net/DTD/sodipodi-0.dtd"
   xmlns:inkscape="http://www.inkscape.org/namespaces/inkscape"
   width="945"
   height="216.82408"
   viewBox="0 0 756 173.11803"
   id="svg3198"
   version="1.1"
   inkscape:version="0.48.2 r9819"
   sodipodi:docname="pipelineFullyReproducible.svg">
  <metadata
     id="metadata3417">
    <rdf:RDF>
      <cc:Work
         rdf:about="">
        <dc:format>image/svg+xml</dc:format>
        <dc:type
           rdf:resource="http://purl.org/dc/dcmitype/StillImage" />
        <dc:title></dc:title>
      </cc:Work>
    </rdf:RDF>
  </metadata>
  <defs
     id="defs3415" />
  <sodipodi:namedview
     pagecolor="#ffffff"
     bordercolor="#666666"
     borderopacity="1"
     objecttolerance="10"
     gridtolerance="10"
     guidetolerance="10"
     inkscape:pageopacity="0"
     inkscape:pageshadow="2"
     inkscape:window-width="1433"
     inkscape:window-height="735"
     id="namedview3413"
     showgrid="false"
     fit-margin-top="0"
     fit-margin-left="0"
     fit-margin-right="0"
     fit-margin-bottom="0"
     inkscape:zoom="1"
     inkscape:cx="472.5"
     inkscape:cy="108.40973"
     inkscape:window-x="174"
     inkscape:window-y="110"
     inkscape:window-maximized="0"
     inkscape:current-layer="svg3198" />
  <g
     id="graph0"
     class="graph"
     transform="matrix(0.94974874,0,0,0.94974874,3.798995,169.48062)">
    <title
       id="title3201">%3</title>
    <polygon
       points="-4,4 -4,-178.637 792,-178.637 792,4 -4,4 "
       id="polygon3203"
       style="fill:#ffffff;stroke:none" />
    <!-- a -->
    <g
       id="node1"
       class="node">
      <title
         id="title3206">a</title>
      <polygon
         points="219.182,-148.239 142.818,-148.239 142.818,-107.035 219.182,-107.035 219.182,-148.239 "
         id="polygon3208"
         style="fill:#014386;stroke:#014386" />
      <text
         x="181"
         y="-131.83701"
         font-size="14.00"
         id="text3210"
         style="font-size:14px;text-anchor:middle;fill:#ffffff;font-family:'Helvetica,sans-Serif'">Observed</text>
      <text
         x="181"
         y="-115.037"
         font-size="14.00"
         id="text3212"
         style="font-size:14px;text-anchor:middle;fill:#ffffff;font-family:'Helvetica,sans-Serif'">data</text>
    </g>
    <!-- b -->
    <g
       id="node2"
       class="node">
      <title
         id="title3215">b</title>
      <polygon
         points="373.839,-148.239 278.161,-148.239 278.161,-107.035 373.839,-107.035 373.839,-148.239 "
         id="polygon3217"
         style="fill:#014386;stroke:#014386" />
      <text
         x="326"
         y="-131.83701"
         font-size="14.00"
         id="text3219"
         style="font-size:14px;text-anchor:middle;fill:#ffffff;font-family:'Helvetica,sans-Serif'">Transformed</text>
      <text
         x="326"
         y="-115.037"
         font-size="14.00"
         id="text3221"
         style="font-size:14px;text-anchor:middle;fill:#ffffff;font-family:'Helvetica,sans-Serif'">data</text>
    </g>
    <!-- a&#45;&gt;b -->
    <g
       id="edge1"
       class="edge">
      <title
         id="title3224">a-&gt;b</title>
      <path
         d="m 219.198,-127.637 c 14.94,0 32.498,0 48.971,0"
         id="path3226"
         inkscape:connector-curvature="0"
         style="fill:none;stroke:#000000" />
      <polygon
         points="268.252,-124.137 268.252,-131.137 268.252,-131.137 278.252,-127.637 "
         id="polygon3228"
         style="fill:#000000;stroke:#000000" />
    </g>
    <!-- c -->
    <g
       id="node3"
       class="node">
      <title
         id="title3231">c</title>
      <polygon
         points="508.17,-142.637 445.83,-142.637 445.83,-106.637 508.17,-106.637 508.17,-142.637 "
         id="polygon3233"
         style="fill:#014386;stroke:#014386" />
      <text
         x="477"
         y="-120.437"
         font-size="14.00"
         id="text3235"
         style="font-size:14px;text-anchor:middle;fill:#ffffff;font-family:'Helvetica,sans-Serif'">Results</text>
    </g>
    <!-- b&#45;&gt;c -->
    <g
       id="edge2"
       class="edge">
      <title
         id="title3238">b-&gt;c</title>
      <path
         d="m 373.736,-126.696 c 19.73,0.397 42.493,0.855 61.527,1.239"
         id="path3240"
         inkscape:connector-curvature="0"
         style="fill:none;stroke:#000000" />
      <polygon
         points="435.342,-121.955 435.483,-128.954 435.483,-128.954 445.411,-125.253 "
         id="polygon3242"
         style="fill:#000000;stroke:#000000" />
    </g>
    <!-- d -->
    <g
       id="node4"
       class="node">
      <title
         id="title3245">d</title>
      <polygon
         points="667.273,-120.637 580.727,-120.637 580.727,-84.6372 667.273,-84.6372 667.273,-120.637 "
         id="polygon3247"
         style="fill:#014386;stroke:#014386" />
      <text
         x="624"
         y="-98.437202"
         font-size="14.00"
         id="text3249"
         style="font-size:14px;text-anchor:middle;fill:#ffffff;font-family:'Helvetica,sans-Serif'">Summaries</text>
    </g>
    <!-- c&#45;&gt;d -->
    <g
       id="edge3"
       class="edge">
      <title
         id="title3252">c-&gt;d</title>
      <path
         d="m 508.397,-120.025 c 17.984,2.728 41.258,6.26 62.129,9.426"
         id="path3254"
         inkscape:connector-curvature="0"
         style="fill:none;stroke:#000000" />
      <polygon
         points="570.133,-107.118 571.183,-114.039 571.183,-114.039 580.545,-109.079 "
         id="polygon3256"
         style="fill:#000000;stroke:#000000" />
    </g>
    <!-- e -->
    <g
       id="node5"
       class="node">
      <title
         id="title3259">e</title>
      <polygon
         points="653.007,-66.6372 594.993,-66.6372 594.993,-30.6372 653.007,-30.6372 653.007,-66.6372 "
         id="polygon3261"
         style="fill:#014386;stroke:#014386" />
      <text
         x="624"
         y="-44.437199"
         font-size="14.00"
         id="text3263"
         style="font-size:14px;text-anchor:middle;fill:#ffffff;font-family:'Helvetica,sans-Serif'">Tables</text>
    </g>
    <!-- c&#45;&gt;e -->
    <g
       id="edge4"
       class="edge">
      <title
         id="title3266">c-&gt;e</title>
      <path
         d="m 508.373,-113.442 c 11.366,4.507 24.268,10.01 35.627,15.8048 2.348,1.1979 22.88,13.9382 42.422,26.1262"
         id="path3268"
         inkscape:connector-curvature="0"
         style="fill:none;stroke:#000000" />
      <polygon
         points="584.633,-68.5013 588.34,-74.4396 588.34,-74.4396 594.97,-66.1757 "
         id="polygon3270"
         style="fill:#000000;stroke:#000000" />
    </g>
    <!-- f -->
    <g
       id="node6"
       class="node">
      <title
         id="title3273">f</title>
      <polygon
         points="655.168,-174.637 592.832,-174.637 592.832,-138.637 655.168,-138.637 655.168,-174.637 "
         id="polygon3275"
         style="fill:#014386;stroke:#014386" />
      <text
         x="624"
         y="-152.437"
         font-size="14.00"
         id="text3277"
         style="font-size:14px;text-anchor:middle;fill:#ffffff;font-family:'Helvetica,sans-Serif'">Figures</text>
    </g>
    <!-- c&#45;&gt;f -->
    <g
       id="edge5"
       class="edge">
      <title
         id="title3280">c-&gt;f</title>
      <path
         d="m 508.397,-131.345 c 21.557,-4.758 50.714,-11.193 74.223,-16.381"
         id="path3282"
         inkscape:connector-curvature="0"
         style="fill:none;stroke:#000000" />
      <polygon
         points="583.633,-144.365 582.124,-151.2 582.124,-151.2 592.643,-149.938 "
         id="polygon3284"
         style="fill:#000000;stroke:#000000" />
    </g>
    <!-- g -->
    <g
       id="node7"
       class="node">
      <title
         id="title3287">g</title>
      <polygon
         points="788.45,-93.6372 703.55,-93.6372 703.55,-57.6372 788.45,-57.6372 788.45,-93.6372 "
         id="polygon3289"
         style="fill:#014386;stroke:#014386" />
      <text
         x="746"
         y="-71.437202"
         font-size="14.00"
         id="text3291"
         style="font-size:14px;text-anchor:middle;fill:#ffffff;font-family:'Helvetica,sans-Serif'">Manuscript</text>
    </g>
    <!-- d&#45;&gt;g -->
    <g
       id="edge12"
       class="edge">
      <title
         id="title3294">d-&gt;g</title>
      <path
         d="m 667.308,-93.118 c 8.53,1.9194 17.585,3.9567 26.385,5.9367"
         id="path3296"
         inkscape:connector-curvature="0"
         style="fill:none;stroke:#000000" />
      <polygon
         points="692.954,-83.7602 694.491,-90.5894 694.491,-90.5894 703.478,-84.9796 "
         id="polygon3298"
         style="fill:#000000;stroke:#000000" />
    </g>
    <!-- e&#45;&gt;g -->
    <g
       id="edge13"
       class="edge">
      <title
         id="title3301">e-&gt;g</title>
      <path
         d="m 653.135,-54.9675 c 12.04,-2.7092 26.493,-5.961 40.332,-9.0749"
         id="path3303"
         inkscape:connector-curvature="0"
         style="fill:none;stroke:#000000" />
      <polygon
         points="694.405,-60.6658 692.868,-67.495 692.868,-67.495 703.393,-66.2756 "
         id="polygon3305"
         style="fill:#000000;stroke:#000000" />
    </g>
    <!-- f&#45;&gt;g -->
    <g
       id="edge14"
       class="edge">
      <title
         id="title3308">f-&gt;g</title>
      <path
         d="m 654.273,-138.536 c 4.618,2.936 9.321,5.973 13.727,8.899 14.394,9.557 30.045,20.44 43.454,29.9196"
         id="path3310"
         inkscape:connector-curvature="0"
         style="fill:none;stroke:#000000" />
      <polygon
         points="709.726,-96.6521 713.777,-102.361 713.777,-102.361 719.907,-93.7186 "
         id="polygon3312"
         style="fill:#000000;stroke:#000000" />
    </g>
    <!-- A -->
    <g
       id="node8"
       class="node">
      <title
         id="title3315">A</title>
      <ellipse
         cx="181"
         cy="-59.637199"
         rx="60.040199"
         ry="29.331499"
         id="ellipse3317"
         d="m 241.0402,-59.637199 c 0,16.199339 -26.88091,29.331499 -60.0402,29.331499 -33.15929,0 -60.0402,-13.13216 -60.0402,-29.331499 0,-16.19934 26.88091,-29.3315 60.0402,-29.3315 33.15929,0 60.0402,13.13216 60.0402,29.3315 z"
         sodipodi:cx="181"
         sodipodi:cy="-59.637199"
         sodipodi:rx="60.040199"
         sodipodi:ry="29.331499"
         style="fill:#df7a1c;stroke:#df7a1c" />
      <text
         x="181"
         y="-63.8372"
         font-size="14.00"
         id="text3319"
         style="font-size:14px;text-anchor:middle;font-family:'Helvetica,sans-Serif'">Processing</text>
      <text
         x="181"
         y="-47.037201"
         font-size="14.00"
         id="text3321"
         style="font-size:14px;text-anchor:middle;font-family:'Helvetica,sans-Serif'">scripts</text>
    </g>
    <!-- A&#45;&gt;b -->
    <g
       id="edge6"
       class="edge">
      <title
         id="title3324">A-&gt;b</title>
      <path
         d="m 224.518,-79.8553 c 15.278,-7.2653 32.682,-15.5413 48.663,-23.1407"
         id="path3326"
         inkscape:connector-curvature="0"
         style="fill:none;stroke:#000000" />
      <polygon
         points="274.871,-99.9242 271.865,-106.246 271.865,-106.246 282.399,-107.38 "
         id="polygon3328"
         style="fill:#000000;stroke:#000000" />
    </g>
    <!-- B -->
    <g
       id="node9"
       class="node">
      <title
         id="title3331">B</title>
      <ellipse
         cx="326"
         cy="-59.637199"
         rx="45.931801"
         ry="29.331499"
         id="ellipse3333"
         d="m 371.9318,-59.637199 c 0,16.199339 -20.56437,29.331499 -45.9318,29.331499 -25.36743,0 -45.9318,-13.13216 -45.9318,-29.331499 0,-16.19934 20.56437,-29.3315 45.9318,-29.3315 25.36743,0 45.9318,13.13216 45.9318,29.3315 z"
         sodipodi:cx="326"
         sodipodi:cy="-59.637199"
         sodipodi:rx="45.931801"
         sodipodi:ry="29.331499"
         style="fill:#df7a1c;stroke:#df7a1c" />
      <text
         x="326"
         y="-63.8372"
         font-size="14.00"
         id="text3335"
         style="font-size:14px;text-anchor:middle;font-family:'Helvetica,sans-Serif'">Analytic</text>
      <text
         x="326"
         y="-47.037201"
         font-size="14.00"
         id="text3337"
         style="font-size:14px;text-anchor:middle;font-family:'Helvetica,sans-Serif'">scripts</text>
    </g>
    <!-- A&#45;&gt;B -->
    <g
       id="edge16"
       class="edge">
      <title
         id="title3340">A-&gt;B</title>
      <path
         d="m 241.403,-59.6372 c 9.366,0 19.018,0 28.287,0"
         id="path3342"
         inkscape:connector-curvature="0"
         style="fill:none;stroke:#000000" />
      <polygon
         points="269.956,-56.1373 269.956,-63.1373 269.956,-63.1373 279.956,-59.6372 "
         id="polygon3344"
         style="fill:#000000;stroke:#000000" />
    </g>
    <!-- B&#45;&gt;c -->
    <g
       id="edge7"
       class="edge">
      <title
         id="title3347">B-&gt;c</title>
      <path
         d="m 363.628,-76.7985 c 14.396,-6.6421 31.103,-14.2234 46.372,-20.8387 8.419,-3.6478 17.494,-7.4458 26.141,-11.0018"
         id="path3349"
         inkscape:connector-curvature="0"
         style="fill:none;stroke:#000000" />
      <polygon
         points="437.73,-105.507 435.082,-111.987 435.082,-111.987 445.663,-112.53 "
         id="polygon3351"
         style="fill:#000000;stroke:#000000" />
    </g>
    <!-- C -->
    <g
       id="node10"
       class="node">
      <title
         id="title3354">C</title>
      <ellipse
         cx="477"
         cy="-59.637199"
         rx="66.757401"
         ry="29.331499"
         id="ellipse3356"
         d="m 543.7574,-59.637199 c 0,16.199339 -29.88831,29.331499 -66.7574,29.331499 -36.86909,0 -66.7574,-13.13216 -66.7574,-29.331499 0,-16.19934 29.88831,-29.3315 66.7574,-29.3315 36.86909,0 66.7574,13.13216 66.7574,29.3315 z"
         sodipodi:cx="477"
         sodipodi:cy="-59.637199"
         sodipodi:rx="66.757401"
         sodipodi:ry="29.331499"
         style="fill:#df7a1c;stroke:#df7a1c" />
      <text
         x="477"
         y="-63.8372"
         font-size="14.00"
         id="text3358"
         style="font-size:14px;text-anchor:middle;font-family:'Helvetica,sans-Serif'">Presentation</text>
      <text
         x="477"
         y="-47.037201"
         font-size="14.00"
         id="text3360"
         style="font-size:14px;text-anchor:middle;font-family:'Helvetica,sans-Serif'">scripts</text>
    </g>
    <!-- B&#45;&gt;C -->
    <g
       id="edge17"
       class="edge">
      <title
         id="title3363">B-&gt;C</title>
      <path
         d="m 372.109,-59.6372 c 8.744,0 18.13,0 27.556,0"
         id="path3365"
         inkscape:connector-curvature="0"
         style="fill:none;stroke:#000000" />
      <polygon
         points="399.88,-56.1373 399.88,-63.1373 399.88,-63.1373 409.88,-59.6372 "
         id="polygon3367"
         style="fill:#000000;stroke:#000000" />
    </g>
    <!-- C&#45;&gt;d -->
    <g
       id="edge8"
       class="edge">
      <title
         id="title3370">C-&gt;d</title>
      <path
         d="m 532.818,-75.8937 c 12.403,-3.6781 25.542,-7.5744 37.84,-11.2213"
         id="path3372"
         inkscape:connector-curvature="0"
         style="fill:none;stroke:#000000" />
      <polygon
         points="571.718,-83.7787 569.728,-90.4898 569.728,-90.4898 580.31,-89.9774 "
         id="polygon3374"
         style="fill:#000000;stroke:#000000" />
    </g>
    <!-- C&#45;&gt;e -->
    <g
       id="edge9"
       class="edge">
      <title
         id="title3377">C-&gt;e</title>
      <path
         d="m 543.289,-54.6843 c 14.094,1.0693 28.556,2.1663 41.225,3.1275"
         id="path3379"
         inkscape:connector-curvature="0"
         style="fill:none;stroke:#000000" />
      <polygon
         points="584.451,-48.0516 584.981,-55.0316 584.981,-55.0316 594.688,-50.785 "
         id="polygon3381"
         style="fill:#000000;stroke:#000000" />
    </g>
    <!-- C&#45;&gt;f -->
    <g
       id="edge10"
       class="edge">
      <title
         id="title3384">C-&gt;f</title>
      <path
         d="m 520.004,-82.0971 c 8.151,-4.8351 16.488,-10.1284 23.996,-15.5401 17.366,-12.5168 18.876,-19.1528 36,-31.9998 1.357,-1.019 2.754,-2.036 4.175,-3.048"
         id="path3386"
         inkscape:connector-curvature="0"
         style="fill:none;stroke:#000000" />
      <polygon
         points="586.219,-129.842 582.271,-135.623 582.271,-135.623 592.503,-138.372 "
         id="polygon3388"
         style="fill:#000000;stroke:#000000" />
    </g>
    <!-- D -->
    <g
       id="node11"
       class="node">
      <title
         id="title3391">D</title>
      <ellipse
         cx="42"
         cy="-30.637199"
         rx="41.623299"
         ry="29.331499"
         id="ellipse3393"
         d="m 83.623299,-30.637199 c 0,16.199339 -18.635386,29.3314987 -41.623299,29.3314987 -22.987913,0 -41.62329865,-13.1321597 -41.62329865,-29.3314987 0,-16.19934 18.63538565,-29.3315 41.62329865,-29.3315 22.987913,0 41.623299,13.13216 41.623299,29.3315 z"
         sodipodi:cx="42"
         sodipodi:cy="-30.637199"
         sodipodi:rx="41.623299"
         sodipodi:ry="29.331499"
         style="fill:#df7a1c;stroke:#df7a1c" />
      <text
         x="42"
         y="-34.8372"
         font-size="14.00"
         id="text3395"
         style="font-size:14px;text-anchor:middle;font-family:'Helvetica,sans-Serif'">Master</text>
      <text
         x="42"
         y="-18.037201"
         font-size="14.00"
         id="text3397"
         style="font-size:14px;text-anchor:middle;font-family:'Helvetica,sans-Serif'">script</text>
    </g>
    <!-- D&#45;&gt;g -->
    <g
       id="edge11"
       class="edge">
      <title
         id="title3400">D-&gt;g</title>
      <path
         d="M 82.5732,-24.2134 C 137.019,-15.9469 238.164,-2.63721 325,-2.63721 c 0,0 0,0 153,0 84.866,0 110.445,10.54883 190,-18.99999 17.872,-6.6382 35.46,-18.4551 49.305,-29.3454"
         id="path3402"
         inkscape:connector-curvature="0"
         style="fill:none;stroke:#000000" />
      <polygon
         points="719.87,-48.5583 715.448,-53.9843 715.448,-53.9843 725.41,-57.5891 "
         id="polygon3404"
         style="fill:#000000;stroke:#000000" />
    </g>
    <!-- D&#45;&gt;A -->
    <g
       id="edge15"
       class="edge">
      <title
         id="title3407">D-&gt;A</title>
      <path
         d="m 81.8922,-38.8699 c 10.4627,-2.2147 22.0668,-4.671 33.5238,-7.0962"
         id="path3409"
         inkscape:connector-curvature="0"
         style="fill:none;stroke:#000000" />
      <polygon
         points="116.356,-42.5874 114.906,-49.4357 114.906,-49.4357 125.414,-48.0825 "
         id="polygon3411"
         style="fill:#000000;stroke:#000000" />
    </g>
  </g>
</svg>
