<?xml version="1.0" encoding="UTF-8" standalone="no"?>
<!DOCTYPE svg PUBLIC "-//W3C//DTD SVG 1.1//EN"
 "http://www.w3.org/Graphics/SVG/1.1/DTD/svg11.dtd">
<!-- Generated by graphviz version 2.28.0 (20140111.2315)
 -->
<!-- Title: %3 Pages: 1 -->
<svg width="676pt" height="254pt"
 viewBox="0.00 0.00 676.00 254.00" xmlns="http://www.w3.org/2000/svg" xmlns:xlink="http://www.w3.org/1999/xlink">
<g id="graph0" class="graph" transform="scale(1 1) rotate(0) translate(4 250)">
<title>%3</title>
<polygon fill="white" stroke="none" points="-4,4 -4,-250 672,-250 672,4 -4,4"/>
<!-- a -->
<g id="node1" class="node"><title>a</title>
<polygon fill="#014386" stroke="#014386" points="99.1823,-246.602 22.8177,-246.602 22.8177,-205.398 99.1823,-205.398 99.1823,-246.602"/>
<text text-anchor="middle" x="61" y="-230.2" font-family="Helvetica,sans-Serif" font-size="14.00" fill="white">Observed</text>
<text text-anchor="middle" x="61" y="-213.4" font-family="Helvetica,sans-Serif" font-size="14.00" fill="white">data</text>
</g>
<!-- b -->
<g id="node2" class="node"><title>b</title>
<polygon fill="#014386" stroke="#014386" points="253.839,-212.602 158.161,-212.602 158.161,-171.398 253.839,-171.398 253.839,-212.602"/>
<text text-anchor="middle" x="206" y="-196.2" font-family="Helvetica,sans-Serif" font-size="14.00" fill="white">Transformed</text>
<text text-anchor="middle" x="206" y="-179.4" font-family="Helvetica,sans-Serif" font-size="14.00" fill="white">data</text>
</g>
<!-- a&#45;&gt;b -->
<g id="edge1" class="edge"><title>a&#45;&gt;b</title>
<path fill="none" stroke="black" d="M99.1983,-217.156C114.138,-213.604 131.696,-209.429 148.169,-205.512"/>
<polygon fill="black" stroke="black" points="149.333,-208.833 158.252,-203.115 147.714,-202.023 149.333,-208.833"/>
</g>
<!-- c -->
<g id="node3" class="node"><title>c</title>
<polygon fill="#014386" stroke="#014386" points="388.17,-176 325.83,-176 325.83,-140 388.17,-140 388.17,-176"/>
<text text-anchor="middle" x="357" y="-153.8" font-family="Helvetica,sans-Serif" font-size="14.00" fill="white">Results</text>
</g>
<!-- b&#45;&gt;c -->
<g id="edge2" class="edge"><title>b&#45;&gt;c</title>
<path fill="none" stroke="black" d="M253.736,-181.335C273.558,-176.812 296.44,-171.591 315.527,-167.235"/>
<polygon fill="black" stroke="black" points="316.44,-170.617 325.411,-164.98 314.883,-163.793 316.44,-170.617"/>
</g>
<!-- d -->
<g id="node4" class="node"><title>d</title>
<polygon fill="#014386" stroke="#014386" points="547.273,-198 460.727,-198 460.727,-162 547.273,-162 547.273,-198"/>
<text text-anchor="middle" x="504" y="-175.8" font-family="Helvetica,sans-Serif" font-size="14.00" fill="white">Summaries</text>
</g>
<!-- c&#45;&gt;d -->
<g id="edge3" class="edge"><title>c&#45;&gt;d</title>
<path fill="none" stroke="black" d="M388.397,-162.612C406.381,-165.341 429.655,-168.872 450.526,-172.038"/>
<polygon fill="black" stroke="black" points="450.133,-175.519 460.545,-173.559 451.183,-168.598 450.133,-175.519"/>
</g>
<!-- e -->
<g id="node5" class="node"><title>e</title>
<polygon fill="#014386" stroke="#014386" points="533.007,-144 474.993,-144 474.993,-108 533.007,-108 533.007,-144"/>
<text text-anchor="middle" x="504" y="-121.8" font-family="Helvetica,sans-Serif" font-size="14.00" fill="white">Tables</text>
</g>
<!-- c&#45;&gt;e -->
<g id="edge4" class="edge"><title>c&#45;&gt;e</title>
<path fill="none" stroke="black" d="M388.397,-151.292C410.632,-146.385 440.953,-139.693 464.821,-134.426"/>
<polygon fill="black" stroke="black" points="465.603,-137.838 474.613,-132.265 464.094,-131.002 465.603,-137.838"/>
</g>
<!-- f -->
<g id="node6" class="node"><title>f</title>
<polygon fill="#014386" stroke="#014386" points="535.168,-90 472.832,-90 472.832,-54 535.168,-54 535.168,-90"/>
<text text-anchor="middle" x="504" y="-67.8" font-family="Helvetica,sans-Serif" font-size="14.00" fill="white">Figures</text>
</g>
<!-- c&#45;&gt;f -->
<g id="edge5" class="edge"><title>c&#45;&gt;f</title>
<path fill="none" stroke="black" d="M388.285,-148.079C399.884,-143.655 412.969,-137.877 424,-131 442.166,-119.674 442.876,-111.847 460,-99 461.357,-97.9817 462.754,-96.9638 464.175,-95.9521"/>
<polygon fill="black" stroke="black" points="466.219,-98.795 472.503,-90.2648 462.271,-93.0145 466.219,-98.795"/>
</g>
<!-- h -->
<g id="node8" class="node"><title>h</title>
<polygon fill="#014386" stroke="#014386" points="668.45,-117 583.55,-117 583.55,-81 668.45,-81 668.45,-117"/>
<text text-anchor="middle" x="626" y="-94.8" font-family="Helvetica,sans-Serif" font-size="14.00" fill="white">Manuscript</text>
</g>
<!-- d&#45;&gt;h -->
<g id="edge6" class="edge"><title>d&#45;&gt;h</title>
<path fill="none" stroke="black" d="M534.273,-161.899C538.891,-158.963 543.594,-155.926 548,-153 562.394,-143.443 578.045,-132.56 591.454,-123.08"/>
<polygon fill="black" stroke="black" points="593.777,-125.723 599.907,-117.081 589.726,-120.015 593.777,-125.723"/>
</g>
<!-- e&#45;&gt;h -->
<g id="edge7" class="edge"><title>e&#45;&gt;h</title>
<path fill="none" stroke="black" d="M533.135,-119.67C545.175,-116.961 559.628,-113.709 573.467,-110.595"/>
<polygon fill="black" stroke="black" points="574.405,-113.971 583.393,-108.362 572.868,-107.142 574.405,-113.971"/>
</g>
<!-- f&#45;&gt;h -->
<g id="edge8" class="edge"><title>f&#45;&gt;h</title>
<path fill="none" stroke="black" d="M535.281,-78.8132C546.9,-81.4275 560.508,-84.4893 573.564,-87.4269"/>
<polygon fill="black" stroke="black" points="572.874,-90.859 583.398,-89.6396 574.41,-84.0297 572.874,-90.859"/>
</g>
<!-- g -->
<g id="node7" class="node"><title>g</title>
<polygon fill="#014386" stroke="#014386" points="531,-36 477,-36 477,-0 531,-0 531,-36"/>
<text text-anchor="middle" x="504" y="-13.8" font-family="Helvetica,sans-Serif" font-size="14.00" fill="white">Text</text>
</g>
<!-- g&#45;&gt;h -->
<g id="edge9" class="edge"><title>g&#45;&gt;h</title>
<path fill="none" stroke="black" d="M531.058,-34.065C536.68,-37.6135 542.566,-41.3918 548,-45 562.394,-54.5574 578.045,-65.4403 591.454,-74.9199"/>
<polygon fill="black" stroke="black" points="589.726,-77.9851 599.907,-80.9186 593.777,-72.2767 589.726,-77.9851"/>
</g>
<!-- A -->
<g id="node9" class="node"><title>A</title>
<ellipse fill="#df7a1c" stroke="#df7a1c" cx="61" cy="-158" rx="60.0402" ry="29.3315"/>
<text text-anchor="middle" x="61" y="-162.2" font-family="Helvetica,sans-Serif" font-size="14.00">Processing</text>
<text text-anchor="middle" x="61" y="-145.4" font-family="Helvetica,sans-Serif" font-size="14.00">scripts</text>
</g>
<!-- A&#45;&gt;b -->
<g id="edge10" class="edge"><title>A&#45;&gt;b</title>
<path fill="none" stroke="black" d="M115.655,-170.757C126.334,-173.296 137.58,-175.97 148.356,-178.532"/>
<polygon fill="black" stroke="black" points="147.551,-181.938 158.09,-180.847 149.171,-175.128 147.551,-181.938"/>
</g>
<!-- B -->
<g id="node10" class="node"><title>B</title>
<ellipse fill="#df7a1c" stroke="#df7a1c" cx="206" cy="-124" rx="45.9318" ry="29.3315"/>
<text text-anchor="middle" x="206" y="-128.2" font-family="Helvetica,sans-Serif" font-size="14.00">Analytic</text>
<text text-anchor="middle" x="206" y="-111.4" font-family="Helvetica,sans-Serif" font-size="14.00">scripts</text>
</g>
<!-- B&#45;&gt;c -->
<g id="edge11" class="edge"><title>B&#45;&gt;c</title>
<path fill="none" stroke="black" d="M249.697,-133.743C270.443,-138.477 295.239,-144.135 315.662,-148.795"/>
<polygon fill="black" stroke="black" points="315.071,-152.25 325.599,-151.063 316.628,-145.426 315.071,-152.25"/>
</g>
<!-- C -->
<g id="node11" class="node"><title>C</title>
<ellipse fill="#df7a1c" stroke="#df7a1c" cx="357" cy="-93" rx="66.7574" ry="29.3315"/>
<text text-anchor="middle" x="357" y="-97.2" font-family="Helvetica,sans-Serif" font-size="14.00">Presentation</text>
<text text-anchor="middle" x="357" y="-80.4" font-family="Helvetica,sans-Serif" font-size="14.00">scripts</text>
</g>
<!-- C&#45;&gt;d -->
<g id="edge12" class="edge"><title>C&#45;&gt;d</title>
<path fill="none" stroke="black" d="M398.611,-116.103C407.033,-120.973 415.829,-126.115 424,-131 432.007,-135.786 448.89,-146.241 465.001,-156.268"/>
<polygon fill="black" stroke="black" points="463.472,-159.44 473.81,-161.757 467.173,-153.498 463.472,-159.44"/>
</g>
<!-- C&#45;&gt;e -->
<g id="edge13" class="edge"><title>C&#45;&gt;e</title>
<path fill="none" stroke="black" d="M416.559,-106.327C432.908,-110.048 450.239,-113.992 465.057,-117.365"/>
<polygon fill="black" stroke="black" points="464.343,-120.792 474.871,-119.598 465.897,-113.966 464.343,-120.792"/>
</g>
<!-- C&#45;&gt;f -->
<g id="edge14" class="edge"><title>C&#45;&gt;f</title>
<path fill="none" stroke="black" d="M420.756,-83.9112C435.009,-81.847 449.773,-79.7087 462.792,-77.8232"/>
<polygon fill="black" stroke="black" points="463.421,-81.2688 472.816,-76.3715 462.417,-74.3411 463.421,-81.2688"/>
</g>
</g>
</svg>
