<?xml version="1.0" encoding="UTF-8" standalone="no"?>
<!DOCTYPE svg PUBLIC "-//W3C//DTD SVG 1.1//EN"
 "http://www.w3.org/Graphics/SVG/1.1/DTD/svg11.dtd">
<!-- Generated by graphviz version 2.28.0 (20140111.2315)
 -->
<!-- Title: %3 Pages: 1 -->
<svg width="772pt" height="217pt"
 viewBox="0.00 0.00 772.00 217.00" xmlns="http://www.w3.org/2000/svg" xmlns:xlink="http://www.w3.org/1999/xlink">
<g id="graph0" class="graph" transform="scale(1 1) rotate(0) translate(4 213)">
<title>%3</title>
<polygon fill="white" stroke="none" points="-4,4 -4,-213 768,-213 768,4 -4,4"/>
<!-- g -->
<g id="node1" class="node"><title>g</title>
<polygon fill="#014386" stroke="#014386" points="639,-209 585,-209 585,-173 639,-173 639,-209"/>
<text text-anchor="middle" x="612" y="-186.8" font-family="Helvetica,sans-Serif" font-size="14.00" fill="white">Text</text>
</g>
<!-- f -->
<g id="node8" class="node"><title>f</title>
<polygon fill="#014386" stroke="#014386" points="764.45,-137 679.55,-137 679.55,-101 764.45,-101 764.45,-137"/>
<text text-anchor="middle" x="722" y="-114.8" font-family="Helvetica,sans-Serif" font-size="14.00" fill="white">Manuscript</text>
</g>
<!-- g&#45;&gt;f -->
<g id="edge1" class="edge"><title>g&#45;&gt;f</title>
<path fill="none" stroke="black" d="M639.144,-173.571C653.025,-164.317 670.288,-152.808 685.378,-142.748"/>
<polygon fill="black" stroke="black" points="687.59,-145.48 693.969,-137.021 683.707,-139.655 687.59,-145.48"/>
</g>
<!-- D -->
<g id="node2" class="node"><title>D</title>
<ellipse fill="white" stroke="white" cx="42" cy="-116" rx="41.6233" ry="29.3315"/>
<text text-anchor="middle" x="42" y="-120.2" font-family="Helvetica,sans-Serif" font-size="14.00" fill="white">Master</text>
<text text-anchor="middle" x="42" y="-103.4" font-family="Helvetica,sans-Serif" font-size="14.00" fill="white">script</text>
</g>
<!-- D&#45;&gt;f -->
<g id="edge3" class="edge"><title>D&#45;&gt;f</title>
<path fill="none" stroke="white" d="M82.5643,-122.653C137,-131.215 238.133,-145 325,-145 325,-145 325,-145 478,-145 544.348,-145 620.311,-135.298 669.385,-127.748"/>
<polygon fill="white" stroke="white" points="670.098,-131.179 679.436,-126.173 669.015,-124.263 670.098,-131.179"/>
</g>
<!-- A -->
<g id="node9" class="node"><title>A</title>
<ellipse fill="#df7a1c" stroke="#df7a1c" cx="181" cy="-88" rx="60.0402" ry="29.3315"/>
<text text-anchor="middle" x="181" y="-92.2" font-family="Helvetica,sans-Serif" font-size="14.00">Processing</text>
<text text-anchor="middle" x="181" y="-75.4" font-family="Helvetica,sans-Serif" font-size="14.00">scripts</text>
</g>
<!-- D&#45;&gt;A -->
<g id="edge2" class="edge"><title>D&#45;&gt;A</title>
<path fill="none" stroke="white" d="M82.2587,-107.976C92.5939,-105.864 104.022,-103.528 115.312,-101.221"/>
<polygon fill="white" stroke="white" points="116.071,-104.638 125.167,-99.2067 114.669,-97.7801 116.071,-104.638"/>
</g>
<!-- a -->
<g id="node3" class="node"><title>a</title>
<polygon fill="#014386" stroke="#014386" points="219.182,-40.6019 142.818,-40.6019 142.818,0.601905 219.182,0.601905 219.182,-40.6019"/>
<text text-anchor="middle" x="181" y="-24.2" font-family="Helvetica,sans-Serif" font-size="14.00" fill="white">Observed</text>
<text text-anchor="middle" x="181" y="-7.4" font-family="Helvetica,sans-Serif" font-size="14.00" fill="white">data</text>
</g>
<!-- b -->
<g id="node4" class="node"><title>b</title>
<polygon fill="#014386" stroke="#014386" points="373.839,-40.6019 278.161,-40.6019 278.161,0.601905 373.839,0.601905 373.839,-40.6019"/>
<text text-anchor="middle" x="326" y="-24.2" font-family="Helvetica,sans-Serif" font-size="14.00" fill="white">Transformed</text>
<text text-anchor="middle" x="326" y="-7.4" font-family="Helvetica,sans-Serif" font-size="14.00" fill="white">data</text>
</g>
<!-- a&#45;&gt;b -->
<g id="edge4" class="edge"><title>a&#45;&gt;b</title>
<path fill="none" stroke="black" d="M219.198,-20C234.138,-20 251.696,-20 268.169,-20"/>
<polygon fill="black" stroke="black" points="268.252,-23.5001 278.252,-20 268.252,-16.5001 268.252,-23.5001"/>
</g>
<!-- c -->
<g id="node5" class="node"><title>c</title>
<polygon fill="#014386" stroke="#014386" points="508.17,-41 445.83,-41 445.83,-5 508.17,-5 508.17,-41"/>
<text text-anchor="middle" x="477" y="-18.8" font-family="Helvetica,sans-Serif" font-size="14.00" fill="white">Results</text>
</g>
<!-- b&#45;&gt;c -->
<g id="edge5" class="edge"><title>b&#45;&gt;c</title>
<path fill="none" stroke="black" d="M373.736,-20.941C393.466,-21.3383 416.229,-21.7966 435.263,-22.1798"/>
<polygon fill="black" stroke="black" points="435.342,-25.682 445.411,-22.3841 435.483,-18.6834 435.342,-25.682"/>
</g>
<!-- d -->
<g id="node6" class="node"><title>d</title>
<polygon fill="#014386" stroke="#014386" points="641.007,-111 582.993,-111 582.993,-75 641.007,-75 641.007,-111"/>
<text text-anchor="middle" x="612" y="-88.8" font-family="Helvetica,sans-Serif" font-size="14.00" fill="white">Tables</text>
</g>
<!-- c&#45;&gt;d -->
<g id="edge6" class="edge"><title>c&#45;&gt;d</title>
<path fill="none" stroke="black" d="M508.421,-34.1016C519.792,-38.5982 532.686,-44.1179 544,-50 555.018,-55.7282 566.554,-62.7319 576.888,-69.4104"/>
<polygon fill="black" stroke="black" points="574.97,-72.338 585.248,-74.9087 578.817,-66.4895 574.97,-72.338"/>
</g>
<!-- e -->
<g id="node7" class="node"><title>e</title>
<polygon fill="#014386" stroke="#014386" points="643.168,-57 580.832,-57 580.832,-21 643.168,-21 643.168,-57"/>
<text text-anchor="middle" x="612" y="-34.8" font-family="Helvetica,sans-Serif" font-size="14.00" fill="white">Figures</text>
</g>
<!-- c&#45;&gt;e -->
<g id="edge7" class="edge"><title>c&#45;&gt;e</title>
<path fill="none" stroke="black" d="M508.18,-26.6306C526.585,-28.8448 550.344,-31.703 570.386,-34.114"/>
<polygon fill="black" stroke="black" points="570.133,-37.6088 580.479,-35.3283 570.969,-30.6589 570.133,-37.6088"/>
</g>
<!-- d&#45;&gt;f -->
<g id="edge8" class="edge"><title>d&#45;&gt;f</title>
<path fill="none" stroke="black" d="M641.094,-99.7633C649.906,-101.885 659.925,-104.297 669.817,-106.678"/>
<polygon fill="black" stroke="black" points="669.077,-110.1 679.618,-109.038 670.715,-103.294 669.077,-110.1"/>
</g>
<!-- e&#45;&gt;f -->
<g id="edge9" class="edge"><title>e&#45;&gt;f</title>
<path fill="none" stroke="black" d="M637.507,-57.1532C652.558,-68.3023 672.019,-82.7178 688.366,-94.8264"/>
<polygon fill="black" stroke="black" points="686.471,-97.7787 696.59,-100.919 690.638,-92.1538 686.471,-97.7787"/>
</g>
<!-- A&#45;&gt;b -->
<g id="edge10" class="edge"><title>A&#45;&gt;b</title>
<path fill="none" stroke="black" d="M224.518,-67.7819C239.796,-60.5166 257.2,-52.2406 273.181,-44.6412"/>
<polygon fill="black" stroke="black" points="274.871,-47.713 282.399,-40.2577 271.865,-41.3913 274.871,-47.713"/>
</g>
<!-- B -->
<g id="node10" class="node"><title>B</title>
<ellipse fill="#df7a1c" stroke="#df7a1c" cx="326" cy="-88" rx="45.9318" ry="29.3315"/>
<text text-anchor="middle" x="326" y="-92.2" font-family="Helvetica,sans-Serif" font-size="14.00">Analytic</text>
<text text-anchor="middle" x="326" y="-75.4" font-family="Helvetica,sans-Serif" font-size="14.00">scripts</text>
</g>
<!-- A&#45;&gt;B -->
<g id="edge14" class="edge"><title>A&#45;&gt;B</title>
<path fill="none" stroke="black" d="M241.403,-88C250.769,-88 260.421,-88 269.69,-88"/>
<polygon fill="black" stroke="black" points="269.956,-91.5001 279.956,-88 269.956,-84.5001 269.956,-91.5001"/>
</g>
<!-- B&#45;&gt;c -->
<g id="edge11" class="edge"><title>B&#45;&gt;c</title>
<path fill="none" stroke="black" d="M363.628,-70.8387C378.024,-64.1966 394.731,-56.6153 410,-50 418.419,-46.3527 427.494,-42.5543 436.141,-38.9981"/>
<polygon fill="black" stroke="black" points="437.73,-42.1297 445.663,-35.1068 435.082,-35.6499 437.73,-42.1297"/>
</g>
<!-- C -->
<g id="node11" class="node"><title>C</title>
<ellipse fill="#df7a1c" stroke="#df7a1c" cx="477" cy="-88" rx="66.7574" ry="29.3315"/>
<text text-anchor="middle" x="477" y="-92.2" font-family="Helvetica,sans-Serif" font-size="14.00">Presentation</text>
<text text-anchor="middle" x="477" y="-75.4" font-family="Helvetica,sans-Serif" font-size="14.00">scripts</text>
</g>
<!-- B&#45;&gt;C -->
<g id="edge15" class="edge"><title>B&#45;&gt;C</title>
<path fill="none" stroke="black" d="M372.109,-88C380.853,-88 390.239,-88 399.665,-88"/>
<polygon fill="black" stroke="black" points="399.88,-91.5001 409.88,-88 399.88,-84.5001 399.88,-91.5001"/>
</g>
<!-- C&#45;&gt;d -->
<g id="edge12" class="edge"><title>C&#45;&gt;d</title>
<path fill="none" stroke="black" d="M543.721,-90.4707C553.599,-90.8421 563.5,-91.2143 572.552,-91.5546"/>
<polygon fill="black" stroke="black" points="572.611,-95.0592 582.736,-91.9374 572.874,-88.0641 572.611,-95.0592"/>
</g>
<!-- C&#45;&gt;e -->
<g id="edge13" class="edge"><title>C&#45;&gt;e</title>
<path fill="none" stroke="black" d="M528.661,-69.3354C542.584,-64.206 557.49,-58.7143 570.74,-53.8325"/>
<polygon fill="black" stroke="black" points="572.333,-56.9757 580.507,-50.2344 569.913,-50.4073 572.333,-56.9757"/>
</g>
</g>
</svg>
