<?xml version="1.0" encoding="UTF-8" standalone="no"?>
<!DOCTYPE svg PUBLIC "-//W3C//DTD SVG 1.1//EN"
 "http://www.w3.org/Graphics/SVG/1.1/DTD/svg11.dtd">
<!-- Generated by graphviz version 2.28.0 (20140111.2315)
 -->
<!-- Title: %3 Pages: 1 -->
<svg width="606pt" height="222pt"
 viewBox="0.00 0.00 606.00 222.00" xmlns="http://www.w3.org/2000/svg" xmlns:xlink="http://www.w3.org/1999/xlink">
<g id="graph0" class="graph" transform="scale(1 1) rotate(0) translate(4 218)">
<title>%3</title>
<polygon fill="white" stroke="none" points="-4,4 -4,-218 602,-218 602,4 -4,4"/>
<!-- a -->
<g id="node1" class="node"><title>a</title>
<polygon fill="#014386" stroke="#014386" points="99.1823,-214.602 22.8177,-214.602 22.8177,-173.398 99.1823,-173.398 99.1823,-214.602"/>
<text text-anchor="middle" x="61" y="-198.2" font-family="Helvetica,sans-Serif" font-size="14.00" fill="white">Observed</text>
<text text-anchor="middle" x="61" y="-181.4" font-family="Helvetica,sans-Serif" font-size="14.00" fill="white">data</text>
</g>
<!-- b -->
<g id="node2" class="node"><title>b</title>
<polygon fill="#014386" stroke="#014386" points="253.839,-180.602 158.161,-180.602 158.161,-139.398 253.839,-139.398 253.839,-180.602"/>
<text text-anchor="middle" x="206" y="-164.2" font-family="Helvetica,sans-Serif" font-size="14.00" fill="white">Transformed</text>
<text text-anchor="middle" x="206" y="-147.4" font-family="Helvetica,sans-Serif" font-size="14.00" fill="white">data</text>
</g>
<!-- a&#45;&gt;b -->
<g id="edge1" class="edge"><title>a&#45;&gt;b</title>
<path fill="none" stroke="black" d="M99.1983,-185.156C114.138,-181.604 131.696,-177.429 148.169,-173.512"/>
<polygon fill="black" stroke="black" points="149.333,-176.833 158.252,-171.115 147.714,-170.023 149.333,-176.833"/>
</g>
<!-- c -->
<g id="node3" class="node"><title>c</title>
<polygon fill="#014386" stroke="#014386" points="353.17,-144 290.83,-144 290.83,-108 353.17,-108 353.17,-144"/>
<text text-anchor="middle" x="322" y="-121.8" font-family="Helvetica,sans-Serif" font-size="14.00" fill="white">Results</text>
</g>
<!-- b&#45;&gt;c -->
<g id="edge2" class="edge"><title>b&#45;&gt;c</title>
<path fill="none" stroke="black" d="M253.697,-146.073C262.722,-143.381 272.103,-140.583 280.894,-137.961"/>
<polygon fill="black" stroke="black" points="281.937,-141.303 290.519,-135.091 279.936,-134.595 281.937,-141.303"/>
</g>
<!-- d -->
<g id="node4" class="node"><title>d</title>
<polygon fill="#014386" stroke="#014386" points="477.273,-198 390.727,-198 390.727,-162 477.273,-162 477.273,-198"/>
<text text-anchor="middle" x="434" y="-175.8" font-family="Helvetica,sans-Serif" font-size="14.00" fill="white">Summaries</text>
</g>
<!-- c&#45;&gt;d -->
<g id="edge3" class="edge"><title>c&#45;&gt;d</title>
<path fill="none" stroke="black" d="M353.349,-140.899C363.786,-146.022 375.717,-151.879 387.11,-157.472"/>
<polygon fill="black" stroke="black" points="385.575,-160.618 396.094,-161.883 388.66,-154.334 385.575,-160.618"/>
</g>
<!-- e -->
<g id="node5" class="node"><title>e</title>
<polygon fill="#014386" stroke="#014386" points="463.007,-144 404.993,-144 404.993,-108 463.007,-108 463.007,-144"/>
<text text-anchor="middle" x="434" y="-121.8" font-family="Helvetica,sans-Serif" font-size="14.00" fill="white">Tables</text>
</g>
<!-- c&#45;&gt;e -->
<g id="edge4" class="edge"><title>c&#45;&gt;e</title>
<path fill="none" stroke="black" d="M353.349,-126C365.994,-126 380.831,-126 394.25,-126"/>
<polygon fill="black" stroke="black" points="394.639,-129.5 404.639,-126 394.639,-122.5 394.639,-129.5"/>
</g>
<!-- f -->
<g id="node6" class="node"><title>f</title>
<polygon fill="#014386" stroke="#014386" points="465.168,-90 402.832,-90 402.832,-54 465.168,-54 465.168,-90"/>
<text text-anchor="middle" x="434" y="-67.8" font-family="Helvetica,sans-Serif" font-size="14.00" fill="white">Figures</text>
</g>
<!-- c&#45;&gt;f -->
<g id="edge5" class="edge"><title>c&#45;&gt;f</title>
<path fill="none" stroke="black" d="M353.349,-111.101C365.733,-105.022 380.219,-97.9108 393.416,-91.4321"/>
<polygon fill="black" stroke="black" points="395.316,-94.3987 402.75,-86.8501 392.231,-88.115 395.316,-94.3987"/>
</g>
<!-- h -->
<g id="node8" class="node"><title>h</title>
<polygon fill="#014386" stroke="#014386" points="598.45,-117 513.55,-117 513.55,-81 598.45,-81 598.45,-117"/>
<text text-anchor="middle" x="556" y="-94.8" font-family="Helvetica,sans-Serif" font-size="14.00" fill="white">Manuscript</text>
</g>
<!-- d&#45;&gt;h -->
<g id="edge6" class="edge"><title>d&#45;&gt;h</title>
<path fill="none" stroke="black" d="M464.273,-161.899C468.891,-158.963 473.594,-155.926 478,-153 492.394,-143.443 508.045,-132.56 521.454,-123.08"/>
<polygon fill="black" stroke="black" points="523.777,-125.723 529.907,-117.081 519.726,-120.015 523.777,-125.723"/>
</g>
<!-- e&#45;&gt;h -->
<g id="edge7" class="edge"><title>e&#45;&gt;h</title>
<path fill="none" stroke="black" d="M463.135,-119.67C475.175,-116.961 489.628,-113.709 503.467,-110.595"/>
<polygon fill="black" stroke="black" points="504.405,-113.971 513.393,-108.362 502.868,-107.142 504.405,-113.971"/>
</g>
<!-- f&#45;&gt;h -->
<g id="edge8" class="edge"><title>f&#45;&gt;h</title>
<path fill="none" stroke="black" d="M465.281,-78.8132C476.9,-81.4275 490.508,-84.4893 503.564,-87.4269"/>
<polygon fill="black" stroke="black" points="502.874,-90.859 513.398,-89.6396 504.41,-84.0297 502.874,-90.859"/>
</g>
<!-- g -->
<g id="node7" class="node"><title>g</title>
<polygon fill="#014386" stroke="#014386" points="461,-36 407,-36 407,-0 461,-0 461,-36"/>
<text text-anchor="middle" x="434" y="-13.8" font-family="Helvetica,sans-Serif" font-size="14.00" fill="white">Text</text>
</g>
<!-- g&#45;&gt;h -->
<g id="edge9" class="edge"><title>g&#45;&gt;h</title>
<path fill="none" stroke="black" d="M461.058,-34.065C466.68,-37.6135 472.566,-41.3918 478,-45 492.394,-54.5574 508.045,-65.4403 521.454,-74.9199"/>
<polygon fill="black" stroke="black" points="519.726,-77.9851 529.907,-80.9186 523.777,-72.2767 519.726,-77.9851"/>
</g>
<!-- A -->
<g id="node9" class="node"><title>A</title>
<ellipse fill="#df7a1c" stroke="#df7a1c" cx="61" cy="-126" rx="60.0402" ry="29.3315"/>
<text text-anchor="middle" x="61" y="-130.2" font-family="Helvetica,sans-Serif" font-size="14.00">Processing</text>
<text text-anchor="middle" x="61" y="-113.4" font-family="Helvetica,sans-Serif" font-size="14.00">scripts</text>
</g>
<!-- A&#45;&gt;b -->
<g id="edge10" class="edge"><title>A&#45;&gt;b</title>
<path fill="none" stroke="black" d="M115.655,-138.757C126.334,-141.296 137.58,-143.97 148.356,-146.532"/>
<polygon fill="black" stroke="black" points="147.551,-149.938 158.09,-148.847 149.171,-143.128 147.551,-149.938"/>
</g>
<!-- B -->
<g id="node10" class="node"><title>B</title>
<ellipse fill="#df7a1c" stroke="#df7a1c" cx="206" cy="-92" rx="45.9318" ry="29.3315"/>
<text text-anchor="middle" x="206" y="-96.2" font-family="Helvetica,sans-Serif" font-size="14.00">Analytic</text>
<text text-anchor="middle" x="206" y="-79.4" font-family="Helvetica,sans-Serif" font-size="14.00">scripts</text>
</g>
<!-- B&#45;&gt;c -->
<g id="edge11" class="edge"><title>B&#45;&gt;c</title>
<path fill="none" stroke="black" d="M247.835,-104.179C258.694,-107.417 270.406,-110.911 281.209,-114.132"/>
<polygon fill="black" stroke="black" points="280.24,-117.496 290.823,-117 282.24,-110.788 280.24,-117.496"/>
</g>
</g>
</svg>
